<?xml version="1.0" encoding="UTF-8"?><svg id="Layer_1" xmlns="http://www.w3.org/2000/svg" width="1512" height="865" viewBox="0 0 1512 865"><defs><style>.cls-1{stroke-linecap:round;}.cls-1,.cls-2{fill:none;stroke:#fffbe2;stroke-width:3px;}.cls-3{fill:#fffbe2;}.cls-4{fill:#b94723;}.cls-5{fill:#05377c;}.cls-6{fill:#fab9a5;}.cls-7{fill:#f9c9bb;}</style></defs><rect class="cls-7" y="-117" width="1512" height="982"/><path class="cls-6" d="M1318.58,455.65c-131.93,65.61-369.11,95.21-433.94,203.9-33.96,56.27-21.17,133.99,20.06,205.95h607.29V277.68c-43.76,37.56-79.98,120.78-193.42,177.97Z"/><circle class="cls-2" cx="133" cy="749" r="18.5"/><path class="cls-1" d="M165,749h262"/><path class="cls-4" d="M441.17,755.5v-12.5h4.1c1.13,0,2.11.18,2.94.56.84.37,1.54.86,2.08,1.47.55.61.95,1.29,1.22,2.03.27.73.4,1.46.4,2.19s-.13,1.47-.4,2.21c-.27.73-.68,1.4-1.22,2.01-.55.61-1.24,1.1-2.08,1.47-.83.37-1.82.56-2.94.56h-4.1ZM442.75,754.08h2.35c.96,0,1.77-.15,2.43-.44.66-.31,1.19-.7,1.6-1.18.41-.49.7-1.02.88-1.58.18-.57.28-1.11.28-1.62s-.09-1.06-.28-1.62c-.18-.57-.47-1.09-.88-1.57-.41-.49-.94-.89-1.6-1.18-.66-.31-1.47-.46-2.43-.46h-2.35v9.67ZM458.06,755.67c-.87,0-1.65-.2-2.35-.58-.68-.39-1.23-.92-1.62-1.58-.39-.68-.58-1.43-.58-2.25s.19-1.5.57-2.14c.38-.65.89-1.16,1.53-1.54.65-.38,1.36-.57,2.14-.57s1.47.18,2.11.56c.64.36,1.15.85,1.53,1.47.38.62.57,1.32.57,2.11v.61h-5.44c-.24,0-.49,0-.74-.03-.25-.02-.5-.05-.74-.08.1.74.43,1.36,1,1.86.57.5,1.25.75,2.04.75.53,0,1.02-.12,1.47-.36.45-.24.82-.56,1.1-.96l.42,1.71c-.4.32-.86.58-1.38.76-.51.18-1.05.26-1.62.26ZM454.99,750.62c.5-.08,1.01-.12,1.51-.12h2.76c.2,0,.4,0,.6.03.2,0,.41.02.61.04-.13-.65-.45-1.18-.97-1.6-.52-.43-1.11-.64-1.76-.64s-1.27.23-1.78.68c-.51.44-.83.98-.97,1.61ZM466.11,755.67c-.43,0-.88-.08-1.38-.24-.48-.17-.9-.44-1.25-.82l.42-1.64c.26.43.59.78,1,1.04.41.25.84.38,1.31.38s.78-.11,1-.32c.22-.22.33-.49.33-.8,0-.36-.12-.62-.36-.79-.23-.17-.44-.28-.62-.35l-1.12-.43c-.2-.08-.45-.2-.74-.36-.29-.17-.54-.4-.75-.71-.21-.31-.32-.7-.32-1.19,0-.45.11-.85.32-1.22.21-.37.51-.66.9-.88.39-.22.85-.33,1.38-.33.42,0,.85.07,1.31.22.45.15.84.4,1.15.75l-.42,1.64c-.22-.41-.52-.73-.9-.97-.38-.24-.77-.36-1.18-.36-.38,0-.68.11-.9.32-.21.21-.32.46-.32.74,0,.22.07.42.22.6.15.17.37.32.67.43l1.12.43c.2.07.45.19.75.36.31.17.57.41.81.72.23.32.35.74.35,1.28,0,.75-.26,1.36-.79,1.82-.52.46-1.18.7-1.97.7ZM471.04,755.5v-8.33h1.5v8.33h-1.5ZM471.79,745.67c-.28,0-.51-.1-.71-.29-.2-.19-.29-.43-.29-.71s.1-.52.29-.71c.19-.19.43-.29.71-.29s.52.1.71.29c.19.19.29.42.29.71s-.1.51-.29.71c-.19.19-.42.29-.71.29ZM478.58,759.83c-.64,0-1.22-.09-1.75-.28-.52-.19-.98-.44-1.39-.76l.42-1.7c.28.4.65.72,1.11.97.46.25,1,.38,1.6.38.93,0,1.69-.28,2.26-.85.58-.57.88-1.29.88-2.18v-1.01c-.37.37-.81.67-1.32.89-.5.21-1.04.32-1.61.32-.76,0-1.45-.19-2.08-.57-.63-.39-1.14-.91-1.51-1.56-.37-.65-.56-1.37-.56-2.15s.18-1.5.56-2.15c.38-.65.88-1.16,1.51-1.54.63-.39,1.32-.58,2.08-.58.57,0,1.11.11,1.61.32.51.21.95.51,1.32.89v-1.1h1.39v8.33c0,.91-.21,1.68-.64,2.33-.42.65-.97,1.14-1.65,1.49-.69.34-1.43.51-2.22.51ZM478.97,754.25c.53,0,1.01-.13,1.43-.39.44-.27.78-.62,1.03-1.05.26-.45.39-.94.39-1.47s-.13-1.02-.39-1.46c-.25-.44-.59-.8-1.03-1.06-.43-.27-.9-.4-1.43-.4s-1.01.13-1.44.4c-.43.26-.77.61-1.03,1.06-.25.43-.38.92-.38,1.46s.12,1.03.38,1.47c.26.43.6.79,1.03,1.05.44.26.92.39,1.44.39ZM485.75,755.5v-8.33h1.39v1.35c.31-.49.7-.87,1.18-1.12.49-.26,1.02-.39,1.58-.39.59,0,1.14.15,1.64.44.51.29.92.71,1.24,1.26.32.55.47,1.21.47,2v4.79h-1.5v-4.58c0-.66-.2-1.24-.6-1.74-.39-.51-.94-.76-1.65-.76-.58,0-1.11.21-1.57.64-.45.42-.68,1.02-.68,1.82v4.62h-1.5ZM503.48,755.61c-.76,0-1.45-.19-2.08-.57-.63-.39-1.14-.91-1.51-1.56-.37-.65-.56-1.37-.56-2.15s.18-1.5.56-2.15c.38-.65.88-1.16,1.51-1.54.63-.39,1.32-.58,2.08-.58.57,0,1.11.11,1.61.32.51.21.95.51,1.32.89v-1.1h1.39v8.33h-1.39v-1.1c-.37.37-.81.67-1.32.89-.5.21-1.04.32-1.61.32ZM503.67,754.25c.53,0,1.01-.13,1.43-.39.43-.27.78-.62,1.03-1.05.26-.45.39-.94.39-1.47s-.13-1.02-.39-1.46c-.25-.44-.59-.8-1.03-1.06-.43-.27-.9-.4-1.43-.4s-1.01.13-1.44.4c-.43.26-.77.61-1.03,1.06-.25.43-.38.92-.38,1.46s.12,1.03.38,1.47c.26.43.6.79,1.03,1.05.43.26.92.39,1.44.39ZM511.43,755.5v-7.08h-1.89v-1.25h1.93v-2.39c0-.91.27-1.6.81-2.07.54-.47,1.18-.71,1.92-.71.28,0,.56.03.85.1.3.07.57.18.83.33l-.36,1.46c-.39-.43-.84-.64-1.36-.64-.32,0-.61.11-.88.32-.26.21-.39.62-.39,1.24v2.36h2.07v1.25h-2.03v7.08h-1.5ZM521.28,755.5v-12.5h1.58v11.08h4.33v1.42h-5.92ZM532.37,755.61c-.76,0-1.45-.19-2.08-.57-.63-.39-1.13-.91-1.51-1.56-.37-.65-.55-1.37-.55-2.15s.18-1.5.55-2.15c.38-.65.89-1.16,1.51-1.54.63-.39,1.32-.58,2.08-.58.57,0,1.11.11,1.61.32.51.21.95.51,1.32.89v-1.1h1.39v8.33h-1.39v-1.1c-.37.37-.81.67-1.32.89-.5.21-1.04.32-1.61.32ZM532.56,754.25c.53,0,1.01-.13,1.43-.39.43-.27.78-.62,1.03-1.05.26-.45.39-.94.39-1.47s-.13-1.02-.39-1.46c-.25-.44-.59-.8-1.03-1.06-.43-.27-.9-.4-1.43-.4s-1.01.13-1.44.4c-.43.26-.77.61-1.03,1.06-.25.43-.38.92-.38,1.46s.12,1.03.38,1.47c.26.43.6.79,1.03,1.05.43.26.92.39,1.44.39ZM542.53,755.67c-.58,0-1.13-.14-1.64-.43-.51-.3-.92-.72-1.24-1.28-.32-.55-.47-1.22-.47-2v-4.79h1.5v4.58c0,.66.2,1.24.58,1.75.4.5.95.75,1.67.75.58,0,1.1-.21,1.56-.62.46-.43.69-1.04.69-1.83v-4.62h1.5v8.33h-1.39v-1.35c-.3.49-.7.87-1.19,1.12-.48.26-1,.39-1.57.39ZM549.34,755.5v-8.33h1.39v1.53c.3-.49.69-.88,1.18-1.17.49-.3,1.08-.45,1.75-.45l.38,1.5c-.17-.05-.38-.08-.61-.08-.78,0-1.4.25-1.88.75-.47.49-.71,1.19-.71,2.11v4.14h-1.5ZM558.89,755.61c-.76,0-1.45-.19-2.08-.57-.63-.39-1.14-.91-1.51-1.56-.37-.65-.56-1.37-.56-2.15s.18-1.5.56-2.15c.38-.65.88-1.16,1.51-1.54.63-.39,1.32-.58,2.08-.58.57,0,1.11.11,1.61.32.51.21.95.51,1.32.89v-1.1h1.39v8.33h-1.39v-1.1c-.37.37-.81.67-1.32.89-.5.21-1.04.32-1.61.32ZM559.09,754.25c.53,0,1-.13,1.43-.39.43-.27.78-.62,1.03-1.05.26-.45.39-.94.39-1.47s-.13-1.02-.39-1.46c-.25-.44-.59-.8-1.03-1.06-.43-.27-.9-.4-1.43-.4s-1.01.13-1.45.4c-.43.26-.77.61-1.03,1.06-.25.43-.38.92-.38,1.46s.12,1.03.38,1.47c.26.43.6.79,1.03,1.05.43.26.92.39,1.45.39ZM580.7,755.92l-8.75-9.38v8.96h-1.5v-12.92l8.75,9.38v-8.96h1.5v12.92ZM583.78,755.5v-8.33h1.5v8.33h-1.5ZM584.53,745.67c-.28,0-.51-.1-.71-.29-.19-.19-.29-.43-.29-.71s.1-.52.29-.71c.2-.19.43-.29.71-.29s.52.1.71.29c.19.19.29.42.29.71s-.1.51-.29.71c-.18.19-.42.29-.71.29ZM591.91,755.67c-.87,0-1.65-.2-2.35-.58-.68-.39-1.23-.92-1.62-1.58-.39-.68-.58-1.43-.58-2.25s.19-1.5.57-2.14c.38-.65.89-1.16,1.53-1.54.65-.38,1.36-.57,2.14-.57s1.47.18,2.11.56c.64.36,1.15.85,1.53,1.47.38.62.57,1.32.57,2.11v.61h-5.45c-.24,0-.49,0-.74-.03-.25-.02-.49-.05-.74-.08.1.74.43,1.36,1,1.86.57.5,1.26.75,2.04.75.53,0,1.02-.12,1.47-.36.45-.24.82-.56,1.1-.96l.42,1.71c-.4.32-.86.58-1.38.76-.51.18-1.05.26-1.62.26ZM588.84,750.62c.5-.08,1-.12,1.51-.12h2.76c.2,0,.4,0,.6.03.2,0,.41.02.61.04-.13-.65-.45-1.18-.97-1.6-.52-.43-1.11-.64-1.76-.64s-1.27.23-1.78.68c-.51.44-.83.98-.97,1.61ZM597.8,755.5v-13.33h1.5v13.33h-1.5ZM604.11,755.67c-.43,0-.88-.08-1.38-.24-.48-.17-.9-.44-1.25-.82l.42-1.64c.26.43.59.78,1,1.04.41.25.84.38,1.3.38s.78-.11,1-.32c.22-.22.33-.49.33-.8,0-.36-.12-.62-.36-.79-.23-.17-.44-.28-.62-.35l-1.12-.43c-.2-.08-.45-.2-.74-.36-.29-.17-.54-.4-.75-.71s-.32-.7-.32-1.19c0-.45.11-.85.32-1.22.21-.37.51-.66.9-.88.39-.22.85-.33,1.38-.33.42,0,.85.07,1.31.22.45.15.84.4,1.15.75l-.42,1.64c-.22-.41-.52-.73-.9-.97-.38-.24-.77-.36-1.18-.36-.38,0-.68.11-.9.32-.21.21-.32.46-.32.74,0,.22.07.42.22.6.15.17.37.32.67.43l1.12.43c.2.07.45.19.75.36.31.17.57.41.81.72.23.32.35.74.35,1.28,0,.75-.26,1.36-.79,1.82-.52.46-1.18.7-1.97.7ZM613.02,755.67c-.87,0-1.65-.2-2.35-.58-.68-.39-1.23-.92-1.62-1.58-.39-.68-.58-1.43-.58-2.25s.19-1.5.57-2.14c.38-.65.89-1.16,1.53-1.54.65-.38,1.36-.57,2.14-.57s1.47.18,2.11.56c.64.36,1.15.85,1.53,1.47.38.62.57,1.32.57,2.11v.61h-5.44c-.24,0-.49,0-.74-.03-.25-.02-.5-.05-.74-.08.1.74.43,1.36,1,1.86.57.5,1.25.75,2.04.75.53,0,1.02-.12,1.47-.36.45-.24.82-.56,1.1-.96l.42,1.71c-.4.32-.86.58-1.38.76-.51.18-1.05.26-1.62.26ZM609.96,750.62c.5-.08,1-.12,1.51-.12h2.76c.2,0,.4,0,.6.03.2,0,.41.02.61.04-.13-.65-.45-1.18-.97-1.6-.52-.43-1.11-.64-1.76-.64s-1.27.23-1.78.68c-.51.44-.83.98-.97,1.61ZM618.91,755.5v-8.33h1.39v1.35c.31-.49.7-.87,1.18-1.12.49-.26,1.02-.39,1.58-.39.59,0,1.14.15,1.64.44.51.29.92.71,1.24,1.26.32.55.47,1.21.47,2v4.79h-1.5v-4.58c0-.66-.2-1.24-.6-1.74-.39-.51-.94-.76-1.65-.76-.58,0-1.11.21-1.57.64-.45.42-.68,1.02-.68,1.82v4.62h-1.5Z"/><path class="cls-6" d="M0-50V474.54c32.37,11.68,64.92,22.15,96.48,32.71,109.5,36.66,206.28,74.31,234.36,15.95,28.26-59.04-12.18-214.08,77.97-301.92,89.97-87.16,311.39-107.62,381.71-178.81,25.44-25.94,31.2-58.49,23.26-92.47H0Z"/><path class="cls-5" d="M176.01,396.8c-3.2-1.07-8.93-1.6-17.2-1.6h-13v45l2,3.4c3.33,5.2,8.87,7.8,16.6,7.8,2.8,0,5.33-.27,7.6-.8,7.47-1.33,13-3.8,16.6-7.4,3.6-3.6,5.93-8.93,7-16,.27-2.67.4-4.2.4-4.6,0-1.6-.27-3.4-.8-5.4-1.2-4.8-3.53-9-7-12.6-3.33-3.6-7.4-6.2-12.2-7.8ZM163.41,325.6c-1.73-.67-3.87-1-6.4-1-2.93,0-5.13.47-6.6,1.4-2.27,1.47-3.6,3.53-4,6.2-.4,2.67-.6,10.53-.6,23.6v24.2h3.6c4.8,0,10.6-1.73,17.4-5.2,6-3.07,10.27-6.33,12.8-9.8,2.53-3.47,3.8-7.87,3.8-13.2,0-4.13-.73-7.67-2.2-10.6-1.07-2.27-2.73-4.8-5-7.6-2.13-2.8-3.47-4.07-4-3.8-.67,0-1.73-.53-3.2-1.6-2-1.2-3.87-2.07-5.6-2.6ZM102.01,311.4l4.6-2.2h66.6c8.67,0,14.07.13,16.2.4,2.27.13,5.87.87,10.8,2.2,2.27.27,6.13,2.53,11.6,6.8,5.47,4.27,9.27,8,11.4,11.2,4.13,6.27,6.2,13.67,6.2,22.2,0,2.93-.33,5.93-1,9-1.6,6.93-4.93,13.2-10,18.8l-3.8,4.2,3.2,1.8c4.13,2.13,8.13,5.07,12,8.8,3.87,3.6,6.6,7,8.2,10.2,2.67,5.33,4,11.4,4,18.2,0,3.87-.33,6.93-1,9.2-2.4,9.33-6.8,16.6-13.2,21.8-6.27,5.2-15.33,9-27.2,11.4-4.53.93-21.07,1.4-49.6,1.4h-8.2c-9.33,0-16.07-.07-20.2-.2-4,0-7.8-.07-11.4-.2s-6.07-.53-7.4-1.2c-1.33-.53-2.4-1.07-3.2-1.6-.8-.53-1.93-1.53-3.4-3-3.6-3.6-5.4-7.8-5.4-12.6s1.8-11.8,5.4-21c2.8-7.07,4.2-16.67,4.2-28.8v-5.8c0-17.2-1.27-30.6-3.8-40.2-3.73-14.4-5.6-22.87-5.6-25.4,0-1.6.27-3.2.8-4.8,1.47-4.67,4.53-8.2,9.2-10.6ZM282.47,308c2.67-.67,8-1,16-1s13,.33,15,1c8.4,2.27,13.53,6.87,15.4,13.8.4,1.6.6,3.8.6,6.6v2.8c-.27,4.27-1.93,9.8-5,16.6l-4.6,10.6v78.8l1.6,3.8c1.07,2.13,2.13,3.87,3.2,5.2,2.8,3.2,6.73,4.8,11.8,4.8,2.67,0,5.07-.6,7.2-1.8,4.67-2.67,10.87-9.67,18.6-21,3.2-4.8,6.07-8.33,8.6-10.6,2.53-2.4,5.73-4.53,9.6-6.4,3.87-1.73,7.2-2.6,10-2.6,8.53,0,14.07,5.67,16.6,17,.4,1.6.6,3.27.6,5,0,6.8-2.2,13.53-6.6,20.2-4.4,6.8-9.87,11.8-16.4,15-4.27,2.13-8.73,3.2-13.4,3.2-2.67,0-6.53-.33-11.6-1-5.73-.8-19.47-1.2-41.2-1.2s-34.33-.27-36.6-.8c-9.73-1.73-15.47-6.67-17.2-14.8-.27-1.87-.4-3.13-.4-3.8,0-3.07,1.27-8.73,3.8-17,2.27-7.33,3.6-13.07,4-17.2.4-4.27.6-13.67.6-28.2v-26.4l-2.6-8.2c-3.6-11.2-5.4-19.47-5.4-24.8,0-2.8.47-5.07,1.4-6.8,2.8-5.47,8.27-9.07,16.4-10.8ZM807.64,308h13.2c6.67.13,11.07.47,13.2,1,2.27.4,4.87,1.6,7.8,3.6,2.4,1.73,4.4,4.27,6,7.6,1.73,3.2,4.4,10.07,8,20.6,1.47,4.27,3.87,11.27,7.2,21,3.33,9.6,5.27,15.13,5.8,16.6.93,2.67,1.93,5.6,3,8.8,1.2,3.07,2.07,5.4,2.6,7l.8,2.4v.2c.93,0,7.6-18.67,20-56,3.6-10.4,5.93-16.47,7-18.2,3.07-5.47,7.4-9.53,13-12.2,3.2-1.47,7.33-2.2,12.4-2.2,5.6,0,9.13.27,10.6.8,2.13.53,3.27.8,3.4.8.27,0,1.33.47,3.2,1.4,1.87.93,3.87,2.53,6,4.8,2.27,2.13,3.73,3.93,4.4,5.4.67,1.6,1,3.8,1,6.6,0,4.27-.67,9.73-2,16.4-.93,4.13-1.47,7.8-1.6,11-.13,3.2-.2,11.27-.2,24.2,0,15.07.27,24.53.8,28.4.53,3.87,2.4,9.73,5.6,17.6l3.6,8.8.2,10.2v4.8c0,3.6-.53,6.27-1.6,8-3.33,5.07-10.47,7.87-21.4,8.4h-3.4c-8.27,0-15.27-1.53-21-4.6-5.6-2.93-8.67-6.87-9.2-11.8,0-.13-.07-.53-.2-1.2v-1.4c0-5.6,1.13-13.87,3.4-24.8.8-4.13,1.27-8.13,1.4-12,.13-3.87.2-14.33.2-31.4,0-6-.07-11.73-.2-17.2,0-5.47-.07-9.67-.2-12.6,0-2.93-.07-4.33-.2-4.2-.4.4-6.53,16.8-18.4,49.2-14.93,40.67-22.93,61.87-24,63.6-.27.53-.87,1.2-1.8,2-1.87,1.6-3.27,2.4-4.2,2.4-2.67,0-5-1.4-7-4.2-1.07-1.6-5.2-12.27-12.4-32-6.13-16.27-12.93-34.53-20.4-54.8l-9.4-24.8-.2,34v29.4c.13,2.4.53,5,1.2,7.8.8,2.67,1.33,4.4,1.6,5.2.4.67,1.53,3.07,3.4,7.2,2.93,6,4.8,10.93,5.6,14.8.67,2.93,1,5.07,1,6.4,0,2.93-1.4,5.8-4.2,8.6-3.6,3.87-9.67,6.07-18.2,6.6h-3.2c-6.13,0-10.87-1.2-14.2-3.6l-3-2.2v-20l3-5.4c1.2-2.27,2.53-4.53,4-6.8,1.6-2.27,3-4.47,4.2-6.6,1.2-2.13,2.4-5,3.6-8.6l2.4-7v-56.8l-2.6-8.8c-1.73-6.27-2.6-11.2-2.6-14.8,0-5.73,1.93-10.33,5.8-13.8,1.6-1.6,3.13-2.53,4.6-2.8,1.33-.27,2.27-.53,2.8-.8ZM1007,306.6h.8c.4-.13.94-.2,1.6-.2h2c.67,0,1.94.07,3.8.2h4.2c11.2.13,19.47,1.8,24.8,5,1.74.93,2.87,1.8,3.4,2.6.67.67,1.34,1.93,2,3.8.94,3.07,1.4,6.47,1.4,10.2,0,4.13-1.06,8.6-3.2,13.4-2.93,7.07-4.66,12.4-5.2,16-.53,3.47-.93,11.87-1.2,25.2,0,2-.06,4.6-.2,7.8v6.2c0,8,.4,13.93,1.2,17.8.8,3.73,2.87,9.93,6.2,18.6,1.6,4.27,2.4,8.8,2.4,13.6s-.53,8.33-1.6,10.2c-1.6,2.93-3.73,5.13-6.4,6.6-2.66,1.6-6.46,2.8-11.4,3.6-4.93.67-10.8,1-17.6,1-5.2,0-9.06-.2-11.6-.6-8.8-1.73-14.66-6.07-17.6-13-.67-1.73-1-3.47-1-5.2,0-3.07,1.53-10.73,4.6-23l4.2-16.2.2-25v-12.4c0-7.47-.27-12.53-.8-15.2-.4-2.67-1.4-5.8-3-9.4-2.67-5.33-4.4-12.13-5.2-20.4-.13-.8-.2-1.87-.2-3.2,0-1.47.4-3.2,1.2-5.2,1.6-3.6,4-6.33,7.2-8.2,3.33-1.87,8.34-3.4,15-4.6ZM1080.68,324.2c0-6.4,1.53-10.8,4.6-13.2,3.2-2.53,8.13-3.8,14.8-3.8h3.4c3.87.13,6.4.33,7.6.6,1.33.27,3.33,1.07,6,2.4,4,2,7.4,4.4,10.2,7.2,2,1.87,8.47,10.2,19.4,25,10.93,14.67,21.4,28.87,31.4,42.6,10.13,13.73,15.33,20.6,15.6,20.6.4,0,.6-6.07.6-18.2,0-16.67-.27-26.47-.8-29.4-.27-1.33-2.07-5.73-5.4-13.2-3.33-7.47-5.13-11.8-5.4-13-.53-2.93-.8-5.4-.8-7.4,0-2.93.33-5.07,1-6.4,2-3.6,5.13-6.33,9.4-8.2,3.6-1.6,8.27-2.4,14-2.4,5.33,0,9.67.73,13,2.2,2.53,1.33,4.6,3.27,6.2,5.8,1.6,2.53,2.4,5.2,2.4,8,0,.13-.07.4-.2.8v1c-.4,3.6-3.93,10.73-10.6,21.4-3.33,5.33-5.27,9.53-5.8,12.6-.4,3.07-.67,12.2-.8,27.4v12.8c0,8.27.2,14.07.6,17.4.53,3.2,1.8,7.93,3.8,14.2,2.27,7.2,3.4,12.73,3.4,16.6,0,4.93-1.87,9.27-5.6,13-3.73,3.73-8.4,5.6-14,5.6-12.4,0-24-5.93-34.8-17.8-2.93-3.2-12.87-17-29.8-41.4-15.07-21.6-24-34.33-26.8-38.2-.27-.27-.47-.4-.6-.4-.53,0-.8,7.13-.8,21.4,0,12.8.27,20.8.8,24,.53,3.2,2.4,8.2,5.6,15,4,8.53,6,15.2,6,20,0,10.67-7.8,16.33-23.4,17h-2.8c-7.2,0-12.4-1.87-15.6-5.6-2.67-3.07-4-6.13-4-9.2,0-4.4,3.13-11.8,9.4-22.2,3.33-5.87,5.33-9.6,6-11.2,1.73-4.4,2.6-13.87,2.6-28.4,0-1.07-.07-2.73-.2-5v-5.6c-.27-10.27-.73-17.27-1.4-21-.53-3.87-2.07-9.6-4.6-17.2-2.4-7.07-3.6-12.47-3.6-16.2ZM1328.83,306.6h1.4c.94-.13,1.8-.2,2.6-.2.67,0,1.74.07,3.2.2h3.6c14.14.53,29.94,4.27,47.4,11.2,7.07,2.8,12.07,5.13,15,7,2.94,1.73,5.34,3.93,7.2,6.6,2.8,4.27,4.2,9.53,4.2,15.8,0,10.53-3.73,19.33-11.2,26.4-5.46,5.2-10.53,7.8-15.2,7.8-3.6,0-6.86-1.4-9.8-4.2-2.26-2-3.93-4-5-6-.93-2.13-2.06-5.87-3.4-11.2-2.93-11.33-7.13-19.73-12.6-25.2-8-8-17.66-12-29-12-4.93,0-8.8.53-11.6,1.6-4.4,1.87-8.06,4.87-11,9-2.8,4.13-4.33,8.73-4.6,13.8v1.6c0,6.93,2.07,16.93,6.2,30,4.4,13.47,10.54,25.33,18.4,35.6,7.87,10.13,16.8,17.8,26.8,23,2.54,1.33,5.87,2.8,10,4.4,4.14,1.6,6.67,2.4,7.6,2.4.54,0-.26-1.87-2.4-5.6-4-6.93-6.2-13.87-6.6-20.8,0-.4-.06-.93-.2-1.6v-1.4c0-8.8,3.6-15.13,10.8-19,4.94-2.8,10.67-4.2,17.2-4.2,6,0,12.6,1.67,19.8,5,2.8,1.33,5.34,3.13,7.6,5.4,2.4,2.27,3.87,4.33,4.4,6.2.54,2.4.8,4.4.8,6,0,5.73-1.8,12.33-5.4,19.8-1.46,3.07-2.4,5.4-2.8,7-.26,1.6-.6,5.4-1,11.4-.53,7.33-1.2,11.73-2,13.2-.66,1.47-2.66,2.33-6,2.6h-2c-1.86,0-4.46-.87-7.8-2.6-4-2-7.46-3.33-10.4-4-2.13-.27-3.4-.4-3.8-.4-2,0-6.93,1.2-14.8,3.6-7.46,2.27-16.4,3.4-26.8,3.4-.53,0-1.4-.07-2.6-.2h-2.6c-8.8-.4-17.46-2-26-4.8-31.46-10.27-50-29.27-55.6-57-.8-4-1.2-9.2-1.2-15.6,0-9.2.67-16.4,2-21.6,5.74-22.8,19.87-39.93,42.4-51.4,10.54-5.33,22.14-9,34.8-11Z"/><path class="cls-3" d="M512.52,346.2c-2.93-1.6-5.87-2.4-8.8-2.4-5.73,0-11,2.73-15.8,8.2-4.8,5.47-8.13,12.8-10,22-.67,3.47-1,7-1,10.6v5.6c.53,14.13,4.4,25.2,11.6,33.2,4.53,5.07,9.6,7.6,15.2,7.6,7.2,0,13.53-4.2,19-12.6,5.2-7.73,7.8-18,7.8-30.8v-3.6c-.4-8.8-2.27-16.6-5.6-23.4-3.2-6.8-7.33-11.6-12.4-14.4ZM487.92,305.8c2.67-.67,4.8-1,6.4-1,1.73,0,4.4.33,8,1,6.13,1.33,11.33,3.93,15.6,7.8,2.27,2,4.33,4.67,6.2,8,1.87,3.33,3,6.27,3.4,8.8.27,1.2.47,1.93.6,2.2.13.27.47.33,1,.2,6.27-2.53,13-3.8,20.2-3.8,2.67,0,5,.2,7,.6,6.27,1.33,11.8,4.27,16.6,8.8,4.8,4.53,8.13,10.07,10,16.6.67,2,1,5.6,1,10.8s-.33,9.13-1,11.8c-1.6,6.93-4.93,12.93-10,18l-5,4.8,1.4,4.6c2.93,9.2,4.4,17.4,4.4,24.6,0,12.4-3.8,22.13-11.4,29.2-7.87,7.2-17.4,10.8-28.6,10.8-2.93,0-6.27-.33-10-1-7.6-1.47-14.33-5.27-20.2-11.4l-5.8-5.8-3,2.6c-2.4,2-5.73,4-10,6-4.27,2.13-7.87,3.47-10.8,4-2.13.27-3.8.4-5,.4-7.6,0-14.47-2.47-20.6-7.4-6.13-4.8-10-10.93-11.6-18.4-.53-2.27-.8-5.2-.8-8.8,0-7.87,1.4-15.87,4.2-24l2.2-6.2-2.4-1.4c-3.33-2-6.13-5.6-8.4-10.8-1.33-2.8-2.07-6.67-2.2-11.6v-3.4c0-5.47,1.47-10.47,4.4-15,5.2-8,13.2-12.33,24-13l5.6-.4.6-5.4c1.6-17.87,9.6-28.8,24-32.8ZM689.28,346.2c-2.93-1.6-5.87-2.4-8.8-2.4-5.73,0-11,2.73-15.8,8.2s-8.13,12.8-10,22c-.67,3.47-1,7-1,10.6v5.6c.53,14.13,4.4,25.2,11.6,33.2,4.53,5.07,9.6,7.6,15.2,7.6,7.2,0,13.53-4.2,19-12.6,5.2-7.73,7.8-18,7.8-30.8v-3.6c-.4-8.8-2.27-16.6-5.6-23.4-3.2-6.8-7.33-11.6-12.4-14.4ZM664.68,305.8c2.67-.67,4.8-1,6.4-1,1.73,0,4.4.33,8,1,6.13,1.33,11.33,3.93,15.6,7.8,2.27,2,4.33,4.67,6.2,8,1.87,3.33,3,6.27,3.4,8.8.27,1.2.47,1.93.6,2.2.13.27.47.33,1,.2,6.27-2.53,13-3.8,20.2-3.8,2.67,0,5,.2,7,.6,6.27,1.33,11.8,4.27,16.6,8.8,4.8,4.53,8.13,10.07,10,16.6.67,2,1,5.6,1,10.8s-.33,9.13-1,11.8c-1.6,6.93-4.93,12.93-10,18l-5,4.8,1.4,4.6c2.93,9.2,4.4,17.4,4.4,24.6,0,12.4-3.8,22.13-11.4,29.2-7.87,7.2-17.4,10.8-28.6,10.8-2.93,0-6.27-.33-10-1-7.6-1.47-14.33-5.27-20.2-11.4l-5.8-5.8-3,2.6c-2.4,2-5.73,4-10,6-4.27,2.13-7.87,3.47-10.8,4-2.13.27-3.8.4-5,.4-7.6,0-14.47-2.47-20.6-7.4-6.13-4.8-10-10.93-11.6-18.4-.53-2.27-.8-5.2-.8-8.8,0-7.87,1.4-15.87,4.2-24l2.2-6.2-2.4-1.4c-3.33-2-6.13-5.6-8.4-10.8-1.33-2.8-2.07-6.67-2.2-11.6v-3.4c0-5.47,1.47-10.47,4.4-15,5.2-8,13.2-12.33,24-13l5.6-.4.6-5.4c1.6-17.87,9.6-28.8,24-32.8Z"/></svg>