<?xml version="1.0" encoding="UTF-8"?><svg id="Layer_1" xmlns="http://www.w3.org/2000/svg" width="1512" height="982" viewBox="0 0 1512 982"><defs><style>.cls-1{stroke-linecap:round;}.cls-1,.cls-2{fill:none;stroke:#fffbe2;stroke-width:3px;}.cls-3{fill:#b94723;}.cls-4{fill:#fab9a5;}.cls-5{fill:#f9c9bb;}</style></defs><rect class="cls-5" y="0" width="1512" height="982"/><path class="cls-4" d="M1318.58,572.65c-131.93,65.61-369.11,95.21-433.94,203.9-33.96,56.27-21.17,133.99,20.06,205.95h607.29V394.68c-43.76,37.56-79.98,120.78-193.42,177.97Z"/><path class="cls-4" d="M408.81,338.28c89.97-87.16,311.39-107.62,381.71-178.81C832.59,116.57,820.85,55.61,782.32,0H0s0,591.54,0,591.54c32.37,11.68,64.92,22.15,96.48,32.71,109.5,36.66,206.28,74.31,234.36,15.95,28.26-59.04-12.18-214.08,77.97-301.92Z"/><circle class="cls-2" cx="113.5" cy="886" r="18.5"/><path class="cls-1" d="M145.5,886h262"/><path class="cls-3" d="M426.26,876.9c4.2,0,7.18,2.78,7.18,6.7s-2.98,6.9-7.18,6.9h-4.78v-13.6h4.78ZM426.26,889.04c3.24,0,5.56-2.26,5.56-5.44s-2.32-5.24-5.56-5.24h-3.2v10.68h3.2ZM440.29,880.98c2.98,0,4.84,2.3,4.54,5.34h-7.76c.18,1.72,1.36,3.06,3.3,3.06,1.18,0,2.08-.42,2.48-1.2h1.7c-.58,1.6-2.18,2.56-4.18,2.56-2.86,0-4.84-2.14-4.84-4.88s1.96-4.88,4.76-4.88ZM440.29,882.3c-1.84,0-2.98,1.3-3.2,2.94h6.22c-.08-1.84-1.26-2.94-3.02-2.94ZM448.25,887.58c.28,1.24,1.24,1.9,2.94,1.9,1.44,0,2.42-.54,2.42-1.48,0-.78-.62-1.24-1.52-1.4l-2.1-.34c-1.52-.26-2.76-.94-2.76-2.52,0-1.72,1.52-2.76,3.76-2.76,1.94,0,3.86.74,4.04,2.94h-1.42c-.16-1.16-1.14-1.7-2.62-1.7-1.4,0-2.24.54-2.24,1.38,0,.68.46,1.18,1.72,1.4l1.84.3c1.34.22,2.76.82,2.76,2.6s-1.64,2.84-3.92,2.84-4.04-.98-4.32-3.16h1.42ZM458.85,878.74c-.58,0-1.02-.44-1.02-1s.44-1.02,1.02-1.02,1.04.44,1.04,1.02-.46,1-1.04,1ZM458.11,881.22h1.52v9.28h-1.52v-9.28ZM470.7,881.22h1.52v9.74c0,2.72-1.86,4.38-4.62,4.38-2.56,0-4.4-1.44-4.72-3.5h1.56c.26,1.26,1.42,2.12,3.16,2.12,1.86,0,3.1-1.12,3.1-3v-1.74c-.86.76-2.02,1.2-3.36,1.2-2.66,0-4.68-2.12-4.68-4.68,0-2.74,2.02-4.76,4.68-4.76,1.34,0,2.5.44,3.36,1.2v-.96ZM467.54,889.08c1.22,0,2.38-.5,3.16-1.64v-3.48c-.78-1.14-1.94-1.64-3.16-1.64-1.96,0-3.36,1.46-3.36,3.42,0,1.78,1.4,3.34,3.36,3.34ZM480.34,880.98c2.36,0,3.98,1.58,3.98,4.2v5.32h-1.52v-5.24c0-1.88-1.1-2.88-2.74-2.88-1.1,0-2.24.56-3.04,1.6v6.52h-1.52v-9.28h1.52v1.04c.86-.82,2-1.28,3.32-1.28ZM500.17,881.22h1.52v9.28h-1.52v-.96c-.82.76-1.94,1.2-3.26,1.2-2.66,0-4.78-2.16-4.78-4.88s2.12-4.88,4.78-4.88c1.32,0,2.44.44,3.26,1.2v-.96ZM497.11,889.34c1.22,0,2.3-.46,3.06-1.58v-3.8c-.76-1.12-1.84-1.58-3.06-1.58-1.96,0-3.46,1.56-3.46,3.48s1.5,3.48,3.46,3.48ZM507.63,879.56v1.66h3.72v1.3h-3.72v7.98h-1.52v-7.98h-2.7v-1.3h2.7v-1.66c0-2.16,1.44-3.5,3.48-3.5.54,0,1.16.08,1.84.28l-.22,1.28c-.5-.14-1.08-.24-1.46-.24-1.3,0-2.12.86-2.12,2.18ZM520.27,889.04h7.5v1.46h-9.08v-13.6h1.58v12.14ZM537.59,881.22h1.52v9.28h-1.52v-.96c-.82.76-1.94,1.2-3.26,1.2-2.66,0-4.78-2.16-4.78-4.88s2.12-4.88,4.78-4.88c1.32,0,2.44.44,3.26,1.2v-.96ZM534.53,889.34c1.22,0,2.3-.46,3.06-1.58v-3.8c-.76-1.12-1.84-1.58-3.06-1.58-1.96,0-3.46,1.56-3.46,3.48s1.5,3.48,3.46,3.48ZM549.32,881.22h1.52v9.28h-1.52v-1.06c-.86.82-2,1.3-3.32,1.3-2.36,0-3.98-1.62-3.98-4.24v-5.28h1.52v5.2c0,1.88,1.1,2.92,2.74,2.92,1.1,0,2.24-.58,3.04-1.64v-6.48ZM555.64,882.74c.86-1.1,2.1-1.74,3.58-1.74v1.44c-1.52.04-2.76.74-3.58,2.02v6.04h-1.52v-9.28h1.52v1.52ZM568.61,881.22h1.52v9.28h-1.52v-.96c-.82.76-1.94,1.2-3.26,1.2-2.66,0-4.78-2.16-4.78-4.88s2.12-4.88,4.78-4.88c1.32,0,2.44.44,3.26,1.2v-.96ZM565.55,889.34c1.22,0,2.3-.46,3.06-1.58v-3.8c-.76-1.12-1.84-1.58-3.06-1.58-1.96,0-3.46,1.56-3.46,3.48s1.5,3.48,3.46,3.48ZM589.04,876.9h1.58v13.6h-1.32l-8.7-10.72v10.72h-1.58v-13.6h1.28l8.74,10.86v-10.86ZM595.14,878.74c-.58,0-1.02-.44-1.02-1s.44-1.02,1.02-1.02,1.04.44,1.04,1.02-.46,1-1.04,1ZM594.4,881.22h1.52v9.28h-1.52v-9.28ZM603.55,880.98c2.98,0,4.84,2.3,4.54,5.34h-7.76c.18,1.72,1.36,3.06,3.3,3.06,1.18,0,2.08-.42,2.48-1.2h1.7c-.58,1.6-2.18,2.56-4.18,2.56-2.86,0-4.84-2.14-4.84-4.88s1.96-4.88,4.76-4.88ZM603.55,882.3c-1.84,0-2.98,1.3-3.2,2.94h6.22c-.08-1.84-1.26-2.94-3.02-2.94ZM610.83,876.3h1.52v14.2h-1.52v-14.2ZM616.4,887.58c.28,1.24,1.24,1.9,2.94,1.9,1.44,0,2.42-.54,2.42-1.48,0-.78-.62-1.24-1.52-1.4l-2.1-.34c-1.52-.26-2.76-.94-2.76-2.52,0-1.72,1.52-2.76,3.76-2.76,1.94,0,3.86.74,4.04,2.94h-1.42c-.16-1.16-1.14-1.7-2.62-1.7-1.4,0-2.24.54-2.24,1.38,0,.68.46,1.18,1.72,1.4l1.84.3c1.34.22,2.76.82,2.76,2.6s-1.64,2.84-3.92,2.84-4.04-.98-4.32-3.16h1.42ZM630.11,880.98c2.98,0,4.84,2.3,4.54,5.34h-7.76c.18,1.72,1.36,3.06,3.3,3.06,1.18,0,2.08-.42,2.48-1.2h1.7c-.58,1.6-2.18,2.56-4.18,2.56-2.86,0-4.84-2.14-4.84-4.88s1.96-4.88,4.76-4.88ZM630.11,882.3c-1.84,0-2.98,1.3-3.2,2.94h6.22c-.08-1.84-1.26-2.94-3.02-2.94ZM642.14,880.98c2.36,0,3.98,1.58,3.98,4.2v5.32h-1.52v-5.24c0-1.88-1.1-2.88-2.74-2.88-1.1,0-2.24.56-3.04,1.6v6.52h-1.52v-9.28h1.52v1.04c.86-.82,2-1.28,3.32-1.28Z"/></svg>